<svg 
 xmlns="http://www.w3.org/2000/svg"
 xmlns:xlink="http://www.w3.org/1999/xlink"
 width="32px" height="32px">
<path fill-rule="evenodd"  fill="currentColor"
 d="M15.1000,-0.000 C24.836,-0.000 31.1000,7.163 31.1000,15.1000 C31.1000,24.837 24.836,31.1000 15.1000,31.1000 C7.163,31.1000 -0.000,24.837 -0.000,15.1000 C-0.000,7.163 7.163,-0.000 15.1000,-0.000 Z"/>
<path fill-rule="evenodd"  fill="#ffffff"
 d="M18.800,24.759 L13.200,24.759 C11.057,24.759 9.304,23.185 9.304,21.261 C9.304,19.338 11.057,17.764 13.200,17.764 L18.800,17.764 C20.943,17.764 22.696,19.338 22.696,21.261 C22.696,23.185 20.943,24.759 18.800,24.759 ZM15.1000,16.493 C13.673,16.493 11.769,14.784 11.769,12.695 L11.769,12.039 C11.769,9.950 13.673,8.241 15.1000,8.241 C18.327,8.241 20.230,9.950 20.230,12.039 L20.230,12.695 C20.230,14.784 18.327,16.493 15.1000,16.493 Z"/>
</svg>
