<?xml version="1.0" encoding="utf-8"?>
<!-- Generator: Adobe Illustrator 24.0.1, SVG Export Plug-In . SVG Version: 6.00 Build 0)  -->
<svg version="1.1" id="图层_1" xmlns="http://www.w3.org/2000/svg" xmlns:xlink="http://www.w3.org/1999/xlink" x="0px" y="0px"
	 viewBox="0 0 31 31" style="enable-background:new 0 0 31 31;" xml:space="preserve">
<style type="text/css">
	.st0{fill-rule:evenodd;clip-rule:evenodd;fill:#FFFFFF;}
</style>
<path class="st0" d="M15.6,0C7,0,0.1,7,0.1,15.5S7,31,15.6,31c8.6,0,15.5-6.9,15.5-15.5S24.1,0,15.6,0z M11.5,11.2
	c0-2,1.8-3.7,4.1-3.7c2.3,0,4.1,1.7,4.1,3.7v0.6c0,2-1.8,3.7-4.1,3.7c-2.3,0-4.1-1.7-4.1-3.7V11.2z M18.3,23.5h-5.4
	c-2.1,0-3.8-1.5-3.8-3.4c0-1.9,1.7-3.4,3.8-3.4h5.4c2.1,0,3.8,1.5,3.8,3.4C22.1,22,20.4,23.5,18.3,23.5z"/>
</svg>
